<svg width="21" height="21" viewBox="0 0 21 21" fill="none" xmlns="http://www.w3.org/2000/svg">
<path d="M2.68367 16.2803C2.97656 15.9874 2.97656 15.5126 2.68367 15.2197C2.39078 14.9268 1.9159 14.9268 1.62301 15.2197L2.15334 15.75L2.68367 16.2803ZM3.88445 19.2122L4.41478 19.7425L4.41478 19.7425L3.88445 19.2122ZM5.28033 18.877C5.57322 18.5841 5.57322 18.1092 5.28033 17.8163C4.98744 17.5234 4.51256 17.5234 4.21967 17.8163L4.75 18.3467L5.28033 18.877ZM2.15334 15.75L1.62301 15.2197L0.757456 16.0852L1.28779 16.6156L1.81812 17.1459L2.68367 16.2803L2.15334 15.75ZM3.88445 19.2122L4.41478 19.7425L5.28033 18.877L4.75 18.3467L4.21967 17.8163L3.35412 18.6819L3.88445 19.2122ZM1.28779 19.2122L0.757456 19.7425C1.7674 20.7525 3.40483 20.7525 4.41478 19.7425L3.88445 19.2122L3.35412 18.6819C2.92996 19.106 2.24227 19.106 1.81812 18.6819L1.28779 19.2122ZM1.28779 16.6156L0.757456 16.0852C-0.252485 17.0952 -0.252485 18.7326 0.757456 19.7425L1.28779 19.2122L1.81812 18.6819C1.39396 18.2577 1.39396 17.57 1.81812 17.1459L1.28779 16.6156Z" fill="#141B34"/>
<path d="M15.2197 1.62301C14.9268 1.9159 14.9268 2.39078 15.2197 2.68367C15.5126 2.97656 15.9874 2.97656 16.2803 2.68367L15.75 2.15334L15.2197 1.62301ZM19.2122 3.88445L19.7425 4.41478L19.7425 4.41478L19.2122 3.88445ZM17.8163 4.21967C17.5234 4.51256 17.5234 4.98744 17.8163 5.28033C18.1092 5.57322 18.5841 5.57322 18.877 5.28033L18.3467 4.75L17.8163 4.21967ZM15.75 2.15334L16.2803 2.68367L17.1459 1.81812L16.6156 1.28779L16.0852 0.757456L15.2197 1.62301L15.75 2.15334ZM19.2122 3.88445L18.6819 3.35412L17.8163 4.21967L18.3467 4.75L18.877 5.28033L19.7425 4.41478L19.2122 3.88445ZM19.2122 1.28779L18.6819 1.81812C19.106 2.24227 19.106 2.92996 18.6819 3.35412L19.2122 3.88445L19.7425 4.41478C20.7525 3.40483 20.7525 1.7674 19.7425 0.757456L19.2122 1.28779ZM16.6156 1.28779L17.1459 1.81812C17.57 1.39396 18.2577 1.39396 18.6819 1.81812L19.2122 1.28779L19.7425 0.757456C18.7326 -0.252485 17.0952 -0.252485 16.0852 0.757456L16.6156 1.28779Z" fill="#141B34"/>
<path d="M6 12C6 12 6.90546 10.7783 7.5 10.5C9.29484 9.65986 9.65986 9.29484 10.5 7.5C10.7783 6.90546 12 6 12 6M8.5 14.5C8.5 14.5 9.72171 13.5945 10 13C10.8401 11.2052 11.2052 10.8401 13 10C13.5945 9.72171 14.5 8.5 14.5 8.5" stroke="#141B34" stroke-width="1.5" stroke-linecap="round" stroke-linejoin="round"/>
<path d="M15.25 8.57458L14.7197 9.10491V9.10491L15.25 8.57458ZM11.9254 5.25L12.4557 4.71967L11.9254 5.25ZM15.25 1.92542L15.7803 1.39509V1.39509L15.25 1.92542ZM18.5746 5.25L18.0443 5.78033L18.0443 5.78033L18.5746 5.25ZM13.5877 0.75V0H13.5877L13.5877 0.75ZM10.75 3.58771L11.5 3.58771V3.58771H10.75ZM16.9123 9.75V10.5H16.9123L16.9123 9.75ZM19.75 6.91229H20.5V6.91229L19.75 6.91229ZM15.25 8.57458L15.7803 8.04425L12.4557 4.71967L11.9254 5.25L11.3951 5.78033L14.7197 9.10491L15.25 8.57458ZM15.25 1.92542L14.7197 2.45575L18.0443 5.78033L18.5746 5.25L19.1049 4.71967L15.7803 1.39509L15.25 1.92542ZM11.9254 1.92542L12.4557 2.45575C12.8625 2.04895 13.1154 1.79833 13.3228 1.64012C13.5128 1.49512 13.5742 1.5 13.5877 1.5L13.5877 0.75L13.5877 0C13.1144 0 12.7364 0.200784 12.4129 0.447588C12.1067 0.681187 11.7719 1.01827 11.3951 1.39509L11.9254 1.92542ZM15.25 1.92542L15.7803 1.39509C15.4035 1.01827 15.0687 0.681187 14.7625 0.447588C14.439 0.200784 14.0611 0 13.5877 0V0.75V1.5C13.6012 1.5 13.6626 1.49512 13.8526 1.64012C14.06 1.79833 14.3129 2.04895 14.7197 2.45575L15.25 1.92542ZM11.9254 5.25L12.4557 4.71967C12.0489 4.31287 11.7983 4.06 11.6401 3.85264C11.4951 3.66259 11.5 3.60123 11.5 3.58771L10.75 3.58771H10C10 4.06106 10.2008 4.43904 10.4476 4.76251C10.6812 5.06868 11.0183 5.40352 11.3951 5.78033L11.9254 5.25ZM11.9254 1.92542L11.3951 1.39509C11.0183 1.7719 10.6812 2.10673 10.4476 2.4129C10.2008 2.73638 10 3.11435 10 3.58771L10.75 3.58771H11.5C11.5 3.57419 11.4951 3.51282 11.6401 3.32277C11.7983 3.11542 12.0489 2.86254 12.4557 2.45575L11.9254 1.92542ZM18.5746 8.57458L18.0443 8.04425C17.6375 8.45105 17.3846 8.70167 17.1772 8.85988C16.9872 9.00488 16.9258 9 16.9123 9L16.9123 9.75L16.9123 10.5C17.3856 10.5 17.7636 10.2992 18.0871 10.0524C18.3933 9.81881 18.7281 9.48173 19.1049 9.10491L18.5746 8.57458ZM15.25 8.57458L14.7197 9.10491C15.0965 9.48173 15.4313 9.81881 15.7375 10.0524C16.061 10.2992 16.4389 10.5 16.9123 10.5V9.75L16.9123 9C16.8988 9 16.8374 9.00488 16.6474 8.85988C16.44 8.70167 16.1871 8.45105 15.7803 8.04425L15.25 8.57458ZM18.5746 8.57458L19.1049 9.10491C19.4817 8.7281 19.8188 8.39327 20.0524 8.0871C20.2992 7.76362 20.5 7.38565 20.5 6.91229H19.75L19 6.91229C19 6.92581 19.0049 6.98718 18.8599 7.17722C18.7017 7.38458 18.4511 7.63745 18.0443 8.04425L18.5746 8.57458ZM18.5746 5.25L18.0443 5.78033C18.4511 6.18713 18.7017 6.44 18.8599 6.64736C19.0049 6.83741 19 6.89877 19 6.91229H19.75L20.5 6.91229C20.5 6.43894 20.2992 6.06096 20.0524 5.73749C19.8188 5.43132 19.4817 5.09648 19.1049 4.71967L18.5746 5.25Z" fill="#141B34"/>
<path d="M8.57458 15.25L9.10491 14.7197V14.7197L8.57458 15.25ZM5.25 11.9254L4.71967 12.4557L5.25 11.9254ZM1.92542 15.25L1.39509 15.7803V15.7803L1.92542 15.25ZM5.25 18.5746L5.78033 18.0443L5.78033 18.0443L5.25 18.5746ZM0.75 13.5877L0 13.5877V13.5877H0.75ZM3.58771 10.75V11.5H3.58771L3.58771 10.75ZM9.75 16.9123L10.5 16.9123V16.9123H9.75ZM6.91229 19.75L6.91229 20.5H6.91229V19.75ZM8.57458 15.25L9.10491 14.7197L5.78033 11.3951L5.25 11.9254L4.71967 12.4557L8.04425 15.7803L8.57458 15.25ZM1.92542 15.25L1.39509 15.7803L4.71967 19.1049L5.25 18.5746L5.78033 18.0443L2.45575 14.7197L1.92542 15.25ZM1.92542 11.9254L1.39509 11.3951C1.01827 11.7719 0.681187 12.1067 0.447588 12.4129C0.200784 12.7364 0 13.1144 0 13.5877L0.75 13.5877L1.5 13.5877C1.5 13.5742 1.49512 13.5128 1.64012 13.3228C1.79833 13.1154 2.04895 12.8625 2.45575 12.4557L1.92542 11.9254ZM1.92542 15.25L2.45575 14.7197C2.04895 14.3129 1.79833 14.06 1.64012 13.8526C1.49512 13.6626 1.5 13.6012 1.5 13.5877H0.75H0C0 14.0611 0.200784 14.439 0.447588 14.7625C0.681187 15.0687 1.01827 15.4035 1.39509 15.7803L1.92542 15.25ZM5.25 11.9254L5.78033 11.3951C5.40352 11.0183 5.06868 10.6812 4.76251 10.4476C4.43904 10.2008 4.06106 10 3.58771 10V10.75L3.58771 11.5C3.60123 11.5 3.66259 11.4951 3.85264 11.6401C4.06 11.7983 4.31287 12.0489 4.71967 12.4557L5.25 11.9254ZM1.92542 11.9254L2.45575 12.4557C2.86254 12.0489 3.11542 11.7983 3.32277 11.6401C3.51282 11.4951 3.57419 11.5 3.58771 11.5V10.75L3.58771 10C3.11435 10 2.73638 10.2008 2.4129 10.4476C2.10673 10.6812 1.7719 11.0183 1.39509 11.3951L1.92542 11.9254ZM8.57458 18.5746L9.10491 19.1049C9.48173 18.7281 9.81881 18.3933 10.0524 18.0871C10.2992 17.7636 10.5 17.3856 10.5 16.9123L9.75 16.9123L9 16.9123C9 16.9258 9.00488 16.9872 8.85988 17.1772C8.70167 17.3846 8.45105 17.6375 8.04425 18.0443L8.57458 18.5746ZM8.57458 15.25L8.04425 15.7803C8.45105 16.1871 8.70167 16.44 8.85988 16.6474C9.00488 16.8374 9 16.8988 9 16.9123L9.75 16.9123H10.5C10.5 16.4389 10.2992 16.061 10.0524 15.7375C9.81881 15.4313 9.48173 15.0965 9.10491 14.7197L8.57458 15.25ZM8.57458 18.5746L8.04425 18.0443C7.63745 18.4511 7.38458 18.7017 7.17722 18.8599C6.98718 19.0049 6.92581 19 6.91229 19L6.91229 19.75V20.5C7.38565 20.5 7.76362 20.2992 8.0871 20.0524C8.39327 19.8188 8.7281 19.4817 9.10491 19.1049L8.57458 18.5746ZM5.25 18.5746L4.71967 19.1049C5.09648 19.4817 5.43132 19.8188 5.73749 20.0524C6.06096 20.2992 6.43894 20.5 6.91229 20.5L6.91229 19.75V19C6.89877 19 6.83741 19.0049 6.64736 18.8599C6.44 18.7017 6.18713 18.4511 5.78033 18.0443L5.25 18.5746Z" fill="#141B34"/>
</svg>
