<svg width="20" height="20" viewBox="0 0 20 20" fill="none" xmlns="http://www.w3.org/2000/svg">
<path fill-rule="evenodd" clip-rule="evenodd" d="M20.0004 6.293C20.0004 9.769 17.1704 12.587 13.6804 12.587C13.0444 12.587 11.5944 12.441 10.8894 11.855L10.0074 12.733C9.48845 13.25 9.62845 13.402 9.85945 13.652C9.95545 13.757 10.0674 13.878 10.1544 14.051C10.1544 14.051 10.8894 15.075 10.1544 16.1C9.71345 16.685 8.47845 17.504 7.06845 16.1L6.77445 16.392C6.77445 16.392 7.65545 17.417 6.92144 18.442C6.48044 19.027 5.30445 19.612 4.27545 18.588L3.24745 19.612C2.54145 20.315 1.67945 19.905 1.33745 19.612L0.454445 18.734C-0.368555 17.914 0.111445 17.026 0.454445 16.684L8.09645 9.074C8.09645 9.074 7.36145 7.904 7.36145 6.294C7.36145 2.818 10.1914 0 13.6814 0C17.1714 0 20.0004 2.818 20.0004 6.293ZM13.6814 8.489C14.2647 8.49006 14.8246 8.25943 15.2379 7.84782C15.6512 7.4362 15.8841 6.8773 15.8854 6.294C15.8849 6.00509 15.8275 5.71912 15.7165 5.4524C15.6054 5.18568 15.4429 4.94345 15.2383 4.73954C15.0336 4.53562 14.7908 4.37401 14.5237 4.26393C14.2565 4.15386 13.9704 4.09747 13.6814 4.098C13.3925 4.09747 13.1064 4.15386 12.8392 4.26393C12.5721 4.37401 12.3293 4.53562 12.1246 4.73954C11.92 4.94345 11.7575 5.18568 11.6464 5.4524C11.5354 5.71912 11.478 6.00509 11.4774 6.294C11.4788 6.8773 11.7117 7.4362 12.125 7.84782C12.5383 8.25943 13.0981 8.49006 13.6814 8.489Z" fill="#CECECE"/>
</svg>
