<svg width="22" height="22" viewBox="0 0 22 22" fill="none" xmlns="http://www.w3.org/2000/svg">
<path d="M19.3475 7.96849L14.0126 2.64104L14.4849 2.16934C14.7117 1.94292 14.9866 1.83082 15.3096 1.83304C15.6334 1.83526 15.9087 1.94958 16.1354 2.17599L19.8254 5.88301C20.0529 6.10943 20.1666 6.3795 20.1666 6.69323C20.1666 7.00696 20.0533 7.27703 19.8265 7.50345L19.3475 7.96849ZM7.50837 19.8254C7.29571 20.0378 7.03267 20.151 6.71924 20.165C6.40581 20.1791 6.1424 20.0803 5.929 19.8687L2.17342 16.1395C1.94668 15.9131 1.83331 15.6393 1.83331 15.3182C1.83331 14.9978 1.94668 14.7244 2.17342 14.4979L2.72469 13.9474L8.05964 19.2749L7.50837 19.8254ZM11.1961 19.7533C11.0161 19.9323 10.8064 20.0219 10.5671 20.0219C10.3277 20.0219 10.1184 19.9323 9.9391 19.7533L2.24566 12.0706C2.06561 11.8908 1.97558 11.6814 1.97558 11.4424C1.97558 11.2034 2.06523 10.9944 2.24455 10.8153L3.89283 9.16273C4.07288 8.98367 4.28369 8.89413 4.52524 8.89413C4.76679 8.89413 4.97723 8.98367 5.15654 9.16273L7.22717 11.2526L11.3262 7.15938L9.23445 5.09056C9.05439 4.91149 8.96436 4.70247 8.96436 4.46347C8.96436 4.22447 9.05439 4.01508 9.23445 3.83527L10.8816 2.16268C11.0617 1.98287 11.2758 1.89297 11.524 1.89297C11.7723 1.89297 11.9864 1.9825 12.1664 2.16157L19.8588 9.84309C20.0388 10.0229 20.1289 10.2367 20.1289 10.4846C20.1289 10.7325 20.0388 10.9463 19.8588 11.1261L18.1838 12.7721C18.0038 12.9511 17.7941 13.0407 17.5547 13.0407C17.3154 13.0407 17.1061 12.9511 16.9268 12.7721L14.855 10.6822L10.756 14.7765L12.8489 16.8442C13.0282 17.0233 13.1178 17.2334 13.1178 17.4747C13.1178 17.7159 13.0282 17.9264 12.8489 18.1062L11.1961 19.7533Z" fill="#C3C3C8"/>
</svg>
