<svg width="22" height="22" viewBox="0 0 22 22" fill="none" xmlns="http://www.w3.org/2000/svg">
<path d="M11 21.083L8.25 18.333H4.58333C4.07917 18.333 3.64772 18.1536 3.289 17.7949C2.93028 17.4362 2.75061 17.0045 2.75 16.4997V3.66634C2.75 3.16217 2.92967 2.73073 3.289 2.37201C3.64833 2.01329 4.07978 1.83362 4.58333 1.83301H17.4167C17.9208 1.83301 18.3526 2.01267 18.7119 2.37201C19.0713 2.73134 19.2506 3.16279 19.25 3.66634V16.4997C19.25 17.0038 19.0706 17.4356 18.7119 17.7949C18.3532 18.1543 17.9214 18.3336 17.4167 18.333H13.75L11 21.083ZM11 10.9997C11.8861 10.9997 12.6424 10.6865 13.2688 10.0601C13.8951 9.4337 14.2083 8.67745 14.2083 7.79134C14.2083 6.90523 13.8951 6.14898 13.2688 5.52259C12.6424 4.8962 11.8861 4.58301 11 4.58301C10.1139 4.58301 9.35764 4.8962 8.73125 5.52259C8.10486 6.14898 7.79167 6.90523 7.79167 7.79134C7.79167 8.67745 8.10486 9.4337 8.73125 10.0601C9.35764 10.6865 10.1139 10.9997 11 10.9997ZM4.58333 16.4997H17.4167V15.4455C16.5917 14.6358 15.6331 13.9981 14.5411 13.5324C13.449 13.0668 12.2687 12.8336 11 12.833C9.73133 12.8324 8.55097 13.0655 7.45892 13.5324C6.36686 13.9993 5.40833 14.637 4.58333 15.4455V16.4997Z" fill="#C3C3C8"/>
</svg>
