<svg width="20" height="22" viewBox="0 0 20 22" fill="none" xmlns="http://www.w3.org/2000/svg">
<path d="M11.6608 7.11842C11.9621 7.35058 12.0246 7.73921 12.1496 8.51646L12.6076 11.3646C12.7698 12.373 12.8509 12.8771 12.5313 13.2045C11.7749 13.9793 7.6312 13.8828 6.96895 13.2045C6.64937 12.8771 6.73045 12.3729 6.89261 11.3646L7.35061 8.51647C7.4756 7.73921 7.5381 7.35058 7.83943 7.11842C8.46052 6.63989 11.007 6.61466 11.6608 7.11842Z" stroke="#141B34" stroke-width="1.5" stroke-linecap="round" stroke-linejoin="round"/>
<path d="M5.25012 17.75C5.29231 17.6234 5.31341 17.5601 5.33598 17.504C5.62417 16.7871 6.29951 16.3004 7.07074 16.2537C7.13113 16.25 7.19784 16.25 7.33126 16.25H12.169C12.3024 16.25 12.3691 16.25 12.4295 16.2537C13.2007 16.3004 13.8761 16.7871 14.1643 17.504C14.1868 17.5601 14.2079 17.6234 14.2501 17.75" stroke="#141B34" stroke-width="1.5" stroke-linecap="round" stroke-linejoin="round"/>
<path d="M9.75012 16.25V20.75M9.75012 20.75H16.7501M9.75012 20.75H2.75012" stroke="#141B34" stroke-width="1.5" stroke-linecap="round" stroke-linejoin="round"/>
<path d="M18.7501 12.75V9.15312C18.7501 8.45834 18.7501 8.11095 18.6374 7.78955C18.5246 7.46814 18.3076 7.19688 17.8736 6.65434L15.9511 4.25122C15.361 3.5136 15.066 3.14479 14.6553 2.94739C14.2445 2.75 13.7722 2.75 12.8276 2.75H6.67262C5.728 2.75 5.2557 2.75 4.84499 2.94739C4.43429 3.14479 4.13924 3.5136 3.54915 4.25122L1.62665 6.65434C1.19262 7.19688 0.975609 7.46814 0.862865 7.78955C0.750122 8.11095 0.750122 8.45834 0.750122 9.15312V12.75" stroke="#141B34" stroke-width="1.5" stroke-linecap="round" stroke-linejoin="round"/>
<path d="M0.750122 10.75H3.75012M18.7501 10.75H15.7501" stroke="#141B34" stroke-width="1.5" stroke-linecap="round" stroke-linejoin="round"/>
<path d="M9.75012 6.75V0.75" stroke="#141B34" stroke-width="1.5" stroke-linecap="round" stroke-linejoin="round"/>
</svg>
