<svg width="22" height="20" viewBox="0 0 22 20" fill="none" xmlns="http://www.w3.org/2000/svg">
<path d="M16.75 0.75V5.75M4.75 0.75V5.75" stroke="#E31B23" stroke-width="1.5" stroke-linecap="round" stroke-linejoin="round"/>
<path d="M19.25 1.75V3.25M19.25 3.25V4.75M19.25 3.25H20.75M2.25 1.75V3.25M2.25 3.25V4.75M2.25 3.25H0.75" stroke="#E31B23" stroke-width="1.5" stroke-linecap="round" stroke-linejoin="round"/>
<path d="M16.75 3.25L4.75 3.25" stroke="#E31B23" stroke-width="1.5" stroke-linecap="round" stroke-linejoin="round"/>
<path d="M8.75 3.25V7.75M12.75 3.25V7.75" stroke="#E31B23" stroke-width="1.5" stroke-linecap="round" stroke-linejoin="round"/>
<path d="M17.7017 13.75H3.81243M13.0056 7.75H8.95659C7.94904 7.75 7.57575 7.89426 7.02172 8.74226L4.00854 13.3543C3.82336 13.6377 3.75 13.8638 3.75 14.2081C3.75 16.3614 4.62314 16.75 6.5969 16.75H14.8469C16.8834 16.75 17.75 16.3665 17.75 14.1579C17.75 13.8518 17.6932 13.6486 17.5457 13.3851L15.0091 8.85557C14.475 7.9018 14.0909 7.75 13.0056 7.75Z" stroke="#E31B23" stroke-width="1.5" stroke-linecap="round" stroke-linejoin="round"/>
<path d="M14.75 16.75V18.75M6.75 16.75V18.75" stroke="#E31B23" stroke-width="1.5" stroke-linecap="round" stroke-linejoin="round"/>
</svg>
