<svg width="22" height="22" viewBox="0 0 22 22" fill="none" xmlns="http://www.w3.org/2000/svg">
<path fill-rule="evenodd" clip-rule="evenodd" d="M11.6481 2.10237C11.4762 1.93052 11.2431 1.83398 11 1.83398C10.7569 1.83398 10.5238 1.93052 10.3519 2.10237L3.93526 8.51904L2.10193 10.3524C2.01438 10.4369 1.94455 10.5381 1.8965 10.6499C1.84846 10.7618 1.82317 10.882 1.82212 11.0038C1.82106 11.1255 1.84425 11.2462 1.89034 11.3588C1.93643 11.4715 2.0045 11.5738 2.09057 11.6599C2.17664 11.746 2.27898 11.814 2.39164 11.8601C2.50429 11.9062 2.625 11.9294 2.74671 11.9284C2.86843 11.9273 2.98871 11.902 3.10055 11.854C3.21239 11.8059 3.31354 11.7361 3.3981 11.6485L3.66668 11.38V17.4171C3.66668 18.1465 3.95641 18.8459 4.47214 19.3617C4.98786 19.8774 5.68733 20.1671 6.41668 20.1671H15.5833C16.3127 20.1671 17.0122 19.8774 17.5279 19.3617C18.0436 18.8459 18.3333 18.1465 18.3333 17.4171V11.38L18.6019 11.6485C18.7748 11.8155 19.0064 11.9079 19.2467 11.9058C19.4871 11.9037 19.717 11.8073 19.8869 11.6374C20.0569 11.4674 20.1533 11.2375 20.1554 10.9972C20.1575 10.7568 20.0651 10.5253 19.8981 10.3524L11.6481 2.10237Z" fill="#C3C3C8"/>
</svg>
