<svg width="22" height="22" viewBox="0 0 22 22" fill="none" xmlns="http://www.w3.org/2000/svg">
<path d="M20.625 21.3125H2.0625C1.69783 21.3125 1.34809 21.1676 1.09023 20.9098C0.832366 20.6519 0.6875 20.3022 0.6875 19.9375V1.375C0.6875 1.19266 0.759933 1.0178 0.888864 0.888864C1.0178 0.759933 1.19266 0.6875 1.375 0.6875C1.55734 0.6875 1.7322 0.759933 1.86114 0.888864C1.99007 1.0178 2.0625 1.19266 2.0625 1.375V19.9375H20.625C20.8073 19.9375 20.9822 20.0099 21.1111 20.1389C21.2401 20.2678 21.3125 20.4427 21.3125 20.625C21.3125 20.8073 21.2401 20.9822 21.1111 21.1111C20.9822 21.2401 20.8073 21.3125 20.625 21.3125Z" fill="#C3C3C8"/>
<path d="M6.70312 18.5625H4.98438C4.57412 18.5625 4.18066 18.3995 3.89057 18.1094C3.60047 17.8193 3.4375 17.4259 3.4375 17.0156V10.4844C3.4375 10.0741 3.60047 9.68066 3.89057 9.39057C4.18066 9.10047 4.57412 8.9375 4.98438 8.9375H6.70312C7.11338 8.9375 7.50684 9.10047 7.79693 9.39057C8.08703 9.68066 8.25 10.0741 8.25 10.4844V17.0156C8.25 17.4259 8.08703 17.8193 7.79693 18.1094C7.50684 18.3995 7.11338 18.5625 6.70312 18.5625ZM12.8906 18.5625H11.1719C10.7616 18.5625 10.3682 18.3995 10.0781 18.1094C9.78797 17.8193 9.625 17.4259 9.625 17.0156V8.42188C9.625 8.01162 9.78797 7.61816 10.0781 7.32807C10.3682 7.03797 10.7616 6.875 11.1719 6.875H12.8906C13.3009 6.875 13.6943 7.03797 13.9844 7.32807C14.2745 7.61816 14.4375 8.01162 14.4375 8.42188V17.0156C14.4375 17.4259 14.2745 17.8193 13.9844 18.1094C13.6943 18.3995 13.3009 18.5625 12.8906 18.5625ZM19.0627 18.5625H17.3439C16.9337 18.5625 16.5402 18.3995 16.2501 18.1094C15.96 17.8193 15.797 17.4259 15.797 17.0156V5.67188C15.797 5.26162 15.96 4.86816 16.2501 4.57807C16.5402 4.28797 16.9337 4.125 17.3439 4.125H19.0627C19.4729 4.125 19.8664 4.28797 20.1565 4.57807C20.4466 4.86816 20.6095 5.26162 20.6095 5.67188V17.0156C20.6095 17.4259 20.4466 17.8193 20.1565 18.1094C19.8664 18.3995 19.4729 18.5625 19.0627 18.5625Z" fill="#C3C3C8"/>
</svg>
