<svg width="24" height="24" viewBox="0 0 24 24" fill="none" xmlns="http://www.w3.org/2000/svg">
<path d="M17 4.5C17 5.32843 16.3284 6 15.5 6C14.6716 6 14 5.32843 14 4.5C14 3.67157 14.6716 3 15.5 3C16.3284 3 17 3.67157 17 4.5Z" stroke="#E31B23" stroke-width="1.5"/>
<path d="M15 21L14.3359 18.3841C14.1161 17.5183 13.6615 16.7276 13.0207 16.0966L11.5 14.5991M6 11.1526C7 9.18287 8.53767 8.0415 12 8.00056M12 8.00056C12.2186 7.99798 12.5444 7.9972 12.8698 7.99726C13.3747 7.99734 13.6271 7.99738 13.8282 8.09134C14.0293 8.1853 14.2356 8.43176 14.6482 8.92469C14.7664 9.06592 14.8878 9.19246 15 9.27664M12 8.00056L10.7309 9.95877C10.0332 11.0354 9.68429 11.5737 9.67069 12.1389C9.66463 12.3906 9.70617 12.6412 9.79313 12.8776C9.98834 13.4082 10.4922 13.8051 11.5 14.5991M15 9.27664C16.1547 10.1425 17.9627 10.4913 20 8.19834M15 9.27664L11.5 14.5991" stroke="#E31B23" stroke-width="1.5" stroke-linecap="round" stroke-linejoin="round"/>
<path d="M4 17.7303L4.67822 17.8916C6.40663 18.3028 8.20324 17.5164 9 16" stroke="#E31B23" stroke-width="1.5" stroke-linecap="round" stroke-linejoin="round"/>
</svg>
