<svg width="15" height="14" viewBox="0 0 15 14" fill="none" xmlns="http://www.w3.org/2000/svg">
<path d="M14.25 8.9175L9.8175 1.53C9.2325 0.555 8.3475 0 7.3725 0C6.3975 0 5.5125 0.555 4.9275 1.5225L0.495 8.9175C0.165 9.465 0 10.035 0 10.575C0 11.0025 0.105 11.4225 0.315 11.79C0.795 12.63 1.725 13.1175 2.8725 13.1175H11.8725C13.02 13.1175 13.95 12.63 14.43 11.79C14.64 11.4225 14.745 11.025 14.745 10.605C14.7525 10.05 14.5875 9.4725 14.25 8.9175ZM7.3725 3.705C8.01 3.705 8.535 4.23 8.535 4.8675C8.535 5.505 8.0175 6.03 7.3725 6.03C6.735 6.03 6.21 5.505 6.21 4.8675C6.21 4.2225 6.7275 3.705 7.3725 3.705ZM8.64 10.05C8.6175 10.08 8.04 10.74 7.0875 10.74H6.975C6.5925 10.7175 6.2775 10.5525 6.09 10.2675C5.8575 9.915 5.82 9.435 6 8.9025L6.3075 7.9875C6.48 7.4775 6.315 7.395 6.225 7.35L6.12 7.335C5.9325 7.335 5.67 7.4475 5.5875 7.4925C5.5125 7.53 5.415 7.515 5.355 7.44C5.3025 7.365 5.3025 7.2675 5.3625 7.2C5.385 7.17 6.015 6.4575 7.0275 6.5175C7.41 6.54 7.725 6.705 7.9125 6.99C8.1525 7.3425 8.1825 7.8225 8.0025 8.3625L7.695 9.2775C7.5225 9.7875 7.6875 9.87 7.7775 9.915L7.8825 9.93C8.07 9.93 8.3325 9.8175 8.415 9.78C8.4975 9.735 8.5875 9.7575 8.6475 9.8325C8.7 9.885 8.7 9.9825 8.64 10.05Z" fill="#CE0000"/>
</svg>
