<svg width="250" height="94" viewBox="0 0 250 94" fill="none" xmlns="http://www.w3.org/2000/svg">
<path d="M52.6953 81.6096C75.2312 81.6096 93.5001 63.3407 93.5001 40.8048C93.5001 18.2689 75.2312 0 52.6953 0C30.1594 0 11.8905 18.2689 11.8905 40.8048C11.8905 63.3407 30.1594 81.6096 52.6953 81.6096Z" fill="url(#paint0_linear_124_4794)"/>
<path d="M52.6949 73.2413C70.608 73.2413 85.1295 58.7198 85.1295 40.8067C85.1295 22.8935 70.608 8.37207 52.6949 8.37207C34.7818 8.37207 20.2603 22.8935 20.2603 40.8067C20.2603 58.7198 34.7818 73.2413 52.6949 73.2413Z" stroke="#15151A" stroke-width="10"/>
<path d="M27.5845 40.8066C20.927 40.8136 14.5448 43.464 9.84087 48.1752C5.13699 52.8865 2.49654 59.2729 2.5 65.9304C2.50347 72.5879 5.15058 78.9715 9.85936 83.6778C14.5681 88.3842 20.9532 91.0279 27.6107 91.0279C34.2681 91.0279 40.6532 88.3842 45.3619 83.6778C50.0707 78.9715 52.7178 72.5879 52.7213 65.9304C52.7248 59.2729 50.0843 52.8865 45.3804 48.1752C40.6765 43.464 34.2943 40.8136 27.6368 40.8066" stroke="#1F1F24" stroke-width="5" stroke-linecap="round"/>
<path d="M47.4636 22.4961H66.2966C77.8057 22.4961 84.6065 29.2969 84.6065 39.7597C84.6065 47.6067 79.8982 53.3613 72.0511 55.4538L88.2684 70.1017H75.19L62.6346 57.5464H58.9727V70.1017H47.4636V22.4961ZM58.9727 32.4357V48.653H65.7735C70.4817 48.653 73.6206 45.5142 73.6206 40.8059C73.6206 35.5746 70.4817 32.4357 65.7735 32.4357H58.9727Z" fill="url(#paint1_linear_124_4794)"/>
<path opacity="0.92" d="M43.2785 14.0624C51.6487 15.6318 57.9264 22.4326 57.9264 30.2797C57.9264 39.1731 51.1256 45.9739 42.2323 46.497C37.0009 47.0201 32.8158 43.8813 30.7232 40.2193C35.9546 39.1731 39.6166 34.988 39.6166 29.7566C39.6166 24.5252 35.9546 20.3401 30.7232 19.2938C33.3389 15.1087 37.524 12.493 43.2785 14.0624Z" fill="white"/>
<path d="M102.956 65.5142L109.844 26.3142H122.696C126.821 26.3142 129.92 27.1728 131.992 28.8902C134.064 30.5888 135.1 33.0528 135.1 36.2822C135.1 38.2608 134.727 40.0342 133.98 41.6022C133.252 43.1702 132.291 44.5422 131.096 45.7182C129.92 46.8942 128.632 47.8742 127.232 48.6582C125.832 49.4235 124.451 50.0022 123.088 50.3942C121.744 50.7675 120.559 50.9542 119.532 50.9542H108.724L109.564 44.2342H119.252C121.025 44.2342 122.519 43.9168 123.732 43.2822C124.945 42.6288 125.86 41.7608 126.476 40.6782C127.111 39.5768 127.428 38.3542 127.428 37.0102C127.428 35.5168 127.008 34.3595 126.168 33.5382C125.328 32.7168 123.937 32.3062 121.996 32.3062H112.168L116.592 28.7222L110.068 65.5142H102.956ZM124.628 65.5142L118.44 48.0422L125.664 46.6422L132.076 65.5142H124.628ZM145.308 61.7342L142.648 58.5702H163.34L162.108 65.5142H137.3L144.188 26.3142H168.492L167.26 33.2582H147.128L150.908 30.0942L145.308 61.7342ZM146.764 41.6022H161.94L160.708 48.5462H145.532L146.764 41.6022ZM176.538 45.9142H185.33C186.842 45.9142 188.177 45.6248 189.334 45.0462C190.51 44.4488 191.425 43.5528 192.078 42.3582C192.732 41.1635 193.058 39.6422 193.058 37.7942C193.058 35.9648 192.638 34.5928 191.798 33.6782C190.977 32.7635 189.642 32.3062 187.794 32.3062H178.134L181.914 29.1422L175.474 65.5142H168.362L175.25 26.3142H188.578C191.192 26.3142 193.385 26.7622 195.158 27.6582C196.932 28.5542 198.266 29.8235 199.162 31.4662C200.058 33.0902 200.506 35.0128 200.506 37.2342C200.506 39.7542 200.105 41.9755 199.302 43.8982C198.518 45.8208 197.398 47.4262 195.942 48.7142C194.505 50.0022 192.797 50.9822 190.818 51.6542C188.84 52.3075 186.656 52.6342 184.266 52.6342H175.362L176.538 45.9142Z" fill="white"/>
<path d="M201.23 65.5142L208.118 26.3142H215.286L208.398 65.5142H201.23ZM224.985 65.5142L230.809 32.2502H237.977L232.153 65.5142H224.985ZM220.057 33.2582L221.289 26.3142H249.625L248.393 33.2582H220.057Z" fill="#D81313"/>
<defs>
<linearGradient id="paint0_linear_124_4794" x1="11.8905" y1="0" x2="11.8905" y2="81.6096" gradientUnits="userSpaceOnUse">
<stop stop-color="#0B0B0D"/>
<stop offset="1"/>
</linearGradient>
<linearGradient id="paint1_linear_124_4794" x1="47.4636" y1="22.4961" x2="94.5092" y2="62.8208" gradientUnits="userSpaceOnUse">
<stop stop-color="#FF2A2A"/>
<stop offset="1" stop-color="#B80000"/>
</linearGradient>
</defs>
</svg>
